/* XPM */
static char * left_xpm[] = {
"16 16 4 1",
" 	c #25131A",
".	c #4C2F49",
"+	c #78514F",
"@	c #6E4A48",
"          ......",
"         .+@+++.",
"         .@@@@+.",
"         .@@@@+.",
"         .@@@@+.",
"         .@@@@+.",
"         .@@@@+.",
"         .......",
"         .......",
"         .+@+++.",
"         .@@@@+.",
"         .@@@@+.",
"         .@@@@+.",
"         .@@@@+.",
"         .+@+++.",
"         ......."};
