/* XPM */
static char *_ba1b4d4602642f8aee38057041c2e22UAyShhOpoonNOMOk[] = {
/* columns rows colors chars-per-pixel */
"64 64 6 1 ",
"  c #25131A",
". c #362030",
"X c #3D253B",
"o c #C09344",
"O c #FFD569",
"+ c #FFF1CC",
/* pixels */
"XXXXXXXXXXXXXXXXXXXXXXXXXXXXXXXXXXXXXXXXXXXXXXXXXXXXXXXXXXXXXXXX",
"XXXXXXXXXXXXXXXXXXXXXXXXXXXXXXXXXXXXXXXXXXXXXXXXXXXXXXXXXXXXXXXX",
"XXXXXXXXXXXXXXXXXXXXXXXXXXXXXXXXXXXXXXXXXXXXXXXXXXXXXXXXXXXXXXXX",
"XXXXXXXXXXXXXXXXXXXXXXXXXXXXXXXXXXXXXXXXXXXXXXXXXXXXXXXXXXXXXXXX",
"XXXXXXXXXXXXXXXXXXXXXXXXXXXXXXXXXXXXXXXXXXXXXXXXXXXXXXXXXXXXXXXX",
"XXXXXXXXXXXXXXXXXXXXXXXXXXXXXXXXXXXXXXXXXXXXXXXXXXXXXXXXXXXXXXXX",
"XXXXXXXXXXXXXXXXXXXXXXXXXXXXXXXXXXXXXXXXXXXXXXXXXXXXXXXXXXXXXXXX",
"XXXXXXXXXXXXXXXXXXXXXXXXXXXXXXXXXXXXXXXXXXXXXXXXXXXXXXXXXXXXXXXX",
"XXXXXXXXXXXXXXXXXXXXXXXXXXXXXXXXXXXXXXXXXXXXXXXXXXXXXXXXXXXXXXXX",
"XXXXXXXXXXXXXXXXXXXXXXXXXXXXXXXXXXXXXXXXXXXXXXXXXXXXXXXXXXXXXXXX",
"XXXXXXXXXXXXXXXXXXXXXXXXXXXXXXXXXXXXXXXXXXXXXXXXXXXXXXXXXXXXXXXX",
"XXXXXXXXXXXXXXXXXXXXXXXXXXXXXXXXXXXXXXXXXXXXXXXXXXXXXXXXXXXXXXXX",
"XXXXXXXXXXXXXXXXXXXXXXXXXXXX....XXXXXXXXXXXXXXXXXXXXXXXXXXXXXXXX",
"XXXXXXXXXXXXXXXXXXXXXXXXXXXX....XXXXXXXXXXXXXXXXXXXXXXXXXXXXXXXX",
"XXXXXXXXXXXXXXXXXXXXXXXXXXXX....XXXXXXXXXXXXXXXXXXXXXXXXXXXXXXXX",
"XXXXXXXXXXXXXXXXXXXXXXXXXXXX....XXXXXXXXXXXXXXXXXXXXXXXXXXXXXXXX",
"XXXXXXXXXXXXXXXXXXXXXXXX                XXXXXXXXXXXXXXXXXXXXXXXX",
"XXXXXXXXXXXXXXXXXXXXXXXX                XXXXXXXXXXXXXXXXXXXXXXXX",
"XXXXXXXXXXXXXXXXXXXXXXXX                XXXXXXXXXXXXXXXXXXXXXXXX",
"XXXXXXXXXXXXXXXXXXXXXXXX                XXXXXXXXXXXXXXXXXXXXXXXX",
"XXXXXXXXXXXXXXXXXXXX    oooooooooooooooo    XXXXXXXXXXXXXXXXXXXX",
"XXXXXXXXXXXXXXXXXXXX    oooooooooooooooo    XXXXXXXXXXXXXXXXXXXX",
"XXXXXXXXXXXXXXXXXXXX    oooooooooooooooo    XXXXXXXXXXXXXXXXXXXX",
"XXXXXXXXXXXXXXXXXXXX    oooooooooooooooo    XXXXXXXXXXXXXXXXXXXX",
"XXXXXXXXXXXXXXXX    oooo++++++++++++OOOOoooo    ................",
"XXXXXXXXXXXXXXXX    oooo++++++++++++OOOOoooo    ................",
"XXXXXXXXXXXXXXXX    oooo++++++++++++OOOOoooo    ................",
"XXXXXXXXXXXXXXXX    oooo++++++++++++OOOOoooo    ................",
"XXXXXXXXXXXX    oooo++++++++ooooooooOOOO++++oooo    XXXXXXXX....",
"XXXXXXXXXXXX    oooo++++++++ooooooooOOOO++++oooo    XXXXXXXX....",
"XXXXXXXXXXXX    oooo++++++++ooooooooOOOO++++oooo    XXXXXXXX....",
"XXXXXXXXXXXX    oooo++++++++ooooooooOOOO++++oooo    XXXXXXXX....",
"XXXXXXXXXXXX    oooo++++oooo++++OOOOooooOOOOoooo    XXXXXXXX....",
"XXXXXXXXXXXX    oooo++++oooo++++OOOOooooOOOOoooo    XXXXXXXX....",
"XXXXXXXXXXXX    oooo++++oooo++++OOOOooooOOOOoooo    XXXXXXXX....",
"XXXXXXXXXXXX    oooo++++oooo++++OOOOooooOOOOoooo    XXXXXXXX....",
"XXXXXXXXXXXX    ooooOOOOooooOOOOOOOOooooOOOOoooo    XXXXXXXXXXXX",
"XXXXXXXXXXXX    ooooOOOOooooOOOOOOOOooooOOOOoooo    XXXXXXXXXXXX",
"XXXXXXXXXXXX    ooooOOOOooooOOOOOOOOooooOOOOoooo    XXXXXXXXXXXX",
"XXXXXXXXXXXX    ooooOOOOooooOOOOOOOOooooOOOOoooo    XXXXXXXXXXXX",
"XXXXXXXXXXXX    oooo++++OOOOooooooooOOOOOOOOoooo    XXXXXXXXXXXX",
"XXXXXXXXXXXX    oooo++++OOOOooooooooOOOOOOOOoooo    XXXXXXXXXXXX",
"XXXXXXXXXXXX    oooo++++OOOOooooooooOOOOOOOOoooo    XXXXXXXXXXXX",
"XXXXXXXXXXXX    oooo++++OOOOooooooooOOOOOOOOoooo    XXXXXXXXXXXX",
"XXXXXXXXXXXXXXXX    ooooOOOOOOOOOOOOOOOOoooo    XXXXXXXXXXXXXXXX",
"XXXXXXXXXXXXXXXX    ooooOOOOOOOOOOOOOOOOoooo    XXXXXXXXXXXXXXXX",
"XXXXXXXXXXXXXXXX    ooooOOOOOOOOOOOOOOOOoooo    XXXXXXXXXXXXXXXX",
"XXXXXXXXXXXXXXXX    ooooOOOOOOOOOOOOOOOOoooo    XXXXXXXXXXXXXXXX",
"XXXXXXXXXXXXXXXXXXXX    oooooooooooooooo    XXXXXXXXXXXXXXXXXXXX",
"XXXXXXXXXXXXXXXXXXXX    oooooooooooooooo    XXXXXXXXXXXXXXXXXXXX",
"XXXXXXXXXXXXXXXXXXXX    oooooooooooooooo    XXXXXXXXXXXXXXXXXXXX",
"XXXXXXXXXXXXXXXXXXXX    oooooooooooooooo    XXXXXXXXXXXXXXXXXXXX",
"XXXXXXXXXXXXXXXXXXXXXXXX                XXXXXXXXXXXXXXXXXXXXXXXX",
"XXXXXXXXXXXXXXXXXXXXXXXX                XXXXXXXXXXXXXXXXXXXXXXXX",
"XXXXXXXXXXXXXXXXXXXXXXXX                XXXXXXXXXXXXXXXXXXXXXXXX",
"XXXXXXXXXXXXXXXXXXXXXXXX                XXXXXXXXXXXXXXXXXXXXXXXX",
"XXXXXXXXXXXXXXXXXXXXXXXXXXXXXXXXXXXXXXXXXXXXXXXXXXXXXXXXXXXXXXXX",
"XXXXXXXXXXXXXXXXXXXXXXXXXXXXXXXXXXXXXXXXXXXXXXXXXXXXXXXXXXXXXXXX",
"XXXXXXXXXXXXXXXXXXXXXXXXXXXXXXXXXXXXXXXXXXXXXXXXXXXXXXXXXXXXXXXX",
"XXXXXXXXXXXXXXXXXXXXXXXXXXXXXXXXXXXXXXXXXXXXXXXXXXXXXXXXXXXXXXXX",
"XXXXXXXXXXXXXXXXXXXXXXXXXXXXXXXXXXXXXXXXXXXXXXXXXXXXXXXXXXXXXXXX",
"XXXXXXXXXXXXXXXXXXXXXXXXXXXXXXXXXXXXXXXXXXXXXXXXXXXXXXXXXXXXXXXX",
"XXXXXXXXXXXXXXXXXXXXXXXXXXXXXXXXXXXXXXXXXXXXXXXXXXXXXXXXXXXXXXXX",
"XXXXXXXXXXXXXXXXXXXXXXXXXXXXXXXXXXXXXXXXXXXXXXXXXXXXXXXXXXXXXXXX"
};
