/* XPM */
static char *result[] = {
/* columns rows colors chars-per-pixel */
"48 48 23 1 ",
"  c #2E242F",
". c #2F252F",
"X c #2F262F",
"o c #30272F",
"O c #3E242E",
"+ c #30282F",
"@ c #31282F",
"# c #332B2E",
"$ c #322A2F",
"% c #342C2E",
"& c #352D2E",
"* c #352E2E",
"= c #3C372D",
"- c #3F3A2C",
"; c #41252E",
": c #55262B",
"> c #423F2C",
", c #433F2C",
"< c #45293F",
"1 c #6E2727",
"2 c #9E4539",
"3 c #7F708A",
"4 c #9BABB2",
/* pixels */
"-==$XX @@.XXXXX#@@@XX+@@@## ...++X.. ++#***,,#  ",
".  .                           @@.     $===  o==",
".  .                           @@.     $===  o==",
"@            ..                            ,,=>>",
"*  $..       oo,                             .  ",
"*  $..       oo,                             .  ",
" %%             ::111111;OO;:::                 ",
"=           :11122222222222222211111          XX",
"=           :11122222222222222211111          XX",
"   .@@   111222211111111111111122222111      .&&",
"      111222111111111111111111111111222111      ",
"      111222111111111111111111111111222111      ",
"    112221111111111111111111111111111112221     ",
"   122111111111111111111111111111111111111211   ",
"   122111111111111111111111111111111111111211   ",
" 112111111111111111111111111111111111111111221  ",
" 221111111111111111111111111111111111111111112  ",
" 221111111111111111111111111111111111111111112  ",
" 111111111111111111111111111111111111111111111  ",
"   1111111111111111111111111111111111111111111  ",
"   1111111111111111111111111111111111111111111  ",
"433 111111111111111111111111111111111111111111  ",
"433 111111111111111111111111111111111111111111  ",
"433 111111111111111111111111111111111111111111  ",
"433 111111111111111111111111111111111111111111  ",
"   1111111111111111111111111111111111111111111  ",
"   1111111111111111111111111111111111111111111  ",
" 222222222222222222222222222222222222222222221  ",
" 221111111111111111111111111111111111111111112  ",
" 221111111111111111111111111111111111111111112  ",
" 221111111111111111111111111111111111114441112  ",
" 221111111111111111111111111111111111441113112  ",
" 221111111111111111111111111111111111441113112  ",
" 221111111111111111111111111111111111441113112  ",
"   <<<<<<<<<<<<<<<<<<<<<<<<<<<<<<<<<<<<333<<<<  ",
"   <<<<<<<<<<<<<<<<<<<<<<<<<<<<<<<<<<<<333<<<<  ",
"433 <<<<<<<<<<<<<<<<<<<<<<<<<<<<<<<<<<<<<<<<<<  ",
"433 111111111111111111111111111111111111111111  ",
"433 111111111111111111111111111111111111111111  ",
"433 111111111111111111111111111111111111111111  ",
"   1111111111111111111111111111111111111111111  ",
"   1111111111111111111111111111111111111111111  ",
" 111111111111111111111111111111111111111111111  ",
" 111111111111111111111111111111111111111111111  ",
" 111111111111111111111111111111111111111111111  ",
" 111111111111111111111111111111111111111111111  ",
"                                                ",
"                                                "
};
