/* XPM */
static char *_04b8bdc9f8d432ebd15cdfbcd69a28eHILdqyELjgLqh8qD[] = {
/* columns rows colors chars-per-pixel */
"64 64 8 1 ",
"  c #25131A",
". c #3D253B",
"X c #724736",
"o c #523B40",
"O c #895A45",
"+ c #BF704D",
"@ c #90919E",
"# c #ADC1CF",
/* pixels */
"                                                            ....",
"                                                            ....",
"                                                            ....",
"                                                            ....",
"OOOO++++++++OOOO++++++++OOOO++++++++OOOO++++++++OOOO++++++++    ",
"OOOO++++++++OOOO++++++++OOOO++++++++OOOO++++++++OOOO++++++++    ",
"OOOO++++++++OOOO++++++++OOOO++++++++OOOO++++++++OOOO++++++++    ",
"OOOO++++++++OOOO++++++++OOOO++++++++OOOO++++++++OOOO++++++++    ",
"OOOO++++++++OOOO++++++++OOOO++++++++OOOO++++++++OOOO++++++++    ",
"OOOO++++++++OOOO++++++++OOOO++++++++OOOO++++++++OOOO++++++++    ",
"OOOO++++++++OOOO++++++++OOOO++++++++OOOO++++++++OOOO++++++++    ",
"OOOO++++++++OOOO++++++++OOOO++++++++OOOO++++++++OOOO++++++++    ",
"                                                                ",
"                                                                ",
"                                                                ",
"                                                                ",
"    ####    ooooOOOOOOOOooooOOOOOOOOooooOOOOOOOOooooOOOOOOOO    ",
"    ####    ooooOOOOOOOOooooOOOOOOOOooooOOOOOOOOooooOOOOOOOO    ",
"    ####    ooooOOOOOOOOooooOOOOOOOOooooOOOOOOOOooooOOOOOOOO    ",
"    ####    ooooOOOOOOOOooooOOOOOOOOooooOOOOOOOOooooOOOOOOOO    ",
"    ####    ooooOOOOOOOOooooOOOOOOOOooooOOOOOOOOooooOOOOOOOO    ",
"    ####    ooooOOOOOOOOooooOOOOOOOOooooOOOOOOOOooooOOOOOOOO    ",
"    ####    ooooOOOOOOOOooooOOOOOOOOooooOOOOOOOOooooOOOOOOOO    ",
"    ####    ooooOOOOOOOOooooOOOOOOOOooooOOOOOOOOooooOOOOOOOO    ",
"    ####    ooooOOOOOOOOooooOOOOOOOOooooOOOOOOOOooooOOOOOOOO    ",
"    ####    ooooOOOOOOOOooooOOOOOOOOooooOOOOOOOOooooOOOOOOOO    ",
"    ####    ooooOOOOOOOOooooOOOOOOOOooooOOOOOOOOooooOOOOOOOO    ",
"    ####    ooooOOOOOOOOooooOOOOOOOOooooOOOOOOOOooooOOOOOOOO    ",
"    ####                    OOOOOOOOooooOOOO    @@@@########    ",
"    ####                    OOOOOOOOooooOOOO    @@@@########    ",
"    ####                    OOOOOOOOooooOOOO    @@@@########    ",
"    ####                    OOOOOOOOooooOOOO    @@@@########    ",
"    @@@@@@@@@@@@############    OOOOoooo    @@@@########@@@@    ",
"    @@@@@@@@@@@@############    OOOOoooo    @@@@########@@@@    ",
"    @@@@@@@@@@@@############    OOOOoooo    @@@@########@@@@    ",
"    @@@@@@@@@@@@############    OOOOoooo    @@@@########@@@@    ",
"    @@@@####            ####    OOOOooooOOOO                    ",
"    @@@@####            ####    OOOOooooOOOO                    ",
"    @@@@####            ####    OOOOooooOOOO                    ",
"    @@@@####            ####    OOOOooooOOOO                    ",
"    ####    oooo    @@@@########    ooooOOOOOOOOooooOOOOOOOO    ",
"    ####    oooo    @@@@########    ooooOOOOOOOOooooOOOOOOOO    ",
"    ####    oooo    @@@@########    ooooOOOOOOOOooooOOOOOOOO    ",
"    ####    oooo    @@@@########    ooooOOOOOOOOooooOOOOOOOO    ",
"    ####    oooo@@@@OOOOoooo    ####    OOOO    @@@@########    ",
"    ####    oooo@@@@OOOOoooo    ####    OOOO    @@@@########    ",
"    ####    oooo@@@@OOOOoooo    ####    OOOO    @@@@########    ",
"    ####    oooo@@@@OOOOoooo    ####    OOOO    @@@@########    ",
"    ####    oooo@@@@OOOOoooo    @@@@        @@@@########@@@@    ",
"    ####    oooo@@@@OOOOoooo    @@@@        @@@@########@@@@    ",
"    ####    oooo@@@@OOOOoooo    @@@@        @@@@########@@@@    ",
"    ####    oooo@@@@OOOOoooo    @@@@        @@@@########@@@@    ",
"    ####    ooooOOOO@@@@@@@@@@@@    ooooXXXX                    ",
"    ####    ooooOOOO@@@@@@@@@@@@    ooooXXXX                    ",
"    ####    ooooOOOO@@@@@@@@@@@@    ooooXXXX                    ",
"    ####    ooooOOOO@@@@@@@@@@@@    ooooXXXX                    ",
"    ########    XXXXXXXXooooXXXXXXXXooooXXXXXXXXooooXXXXXXXX    ",
"    ########    XXXXXXXXooooXXXXXXXXooooXXXXXXXXooooXXXXXXXX    ",
"    ########    XXXXXXXXooooXXXXXXXXooooXXXXXXXXooooXXXXXXXX    ",
"    ########    XXXXXXXXooooXXXXXXXXooooXXXXXXXXooooXXXXXXXX    ",
"                                                                ",
"                                                                ",
"                                                                ",
"                                                                "
};
