/* XPM */
static char *_3d0e8cae2b5418fe585593922024605L0jU9o65pDXujYYg[] = {
/* columns rows colors chars-per-pixel */
"48 48 4 1 ",
"  c #686F16",
". c #72751B",
"X c #787B21",
"o c #7F8124",
/* pixels */
"................................................",
"................................................",
"................................................",
"................................................",
"................................................",
"................................................",
"....XXX.........................................",
"....  ooo.......................................",
"....  ooo.......................................",
"......oXXX.....X................................",
"...... XXX..oXX.................................",
"...... XXX..oXX.................................",
"...... XXXXXooo..................o..............",
".......   XXX  ................XXX...oooXX......",
".......   XXX  ................XXX...oooXX......",
"..........   ..............X...XX ..XXXo........",
"............................ooX  ...XXX ........",
"............................ooX  ...XXX ........",
"............................XXX...XXX  Xoo......",
".............................. ...XX XXX  ......",
".............................. ...XX XXX  ......",
"..................................   XX ........",
"................................................",
"................................................",
".....................oooX.......................",
"......................ooXXX.....................",
"......................ooXXX.....................",
"......................  XXX.....................",
"........................   .....................",
"........................   .....................",
"................................................",
"................................................",
"................................................",
"................................................",
"....ooo......XXX................................",
"....ooo......XXX................................",
"......oXX...XXX............................ooo..",
"...... XXX..XXX.....................X...XXXoo...",
"...... XXX..XXX.....................X...XXXoo...",
"...... XXX..   .....................ooo XXX  ...",
".......   ..........................oXXX   .....",
".......   ..........................oXXX   .....",
".................................... XXX........",
"................................................",
"................................................",
"................................................",
"................................................",
"................................................"
};
