/* XPM */
static char *c4fd4b719d5640f2db276a82849494ber2GIauC3tBExStrg[] = {
/* columns rows colors chars-per-pixel */
"64 64 2 1 ",
"  c #362030",
". c #3D253B",
/* pixels */
"................................................................",
"................................................................",
"................................................................",
"................................................................",
"................................................................",
"................................................................",
"................................................................",
"................................................................",
"................................................................",
"................................................................",
"................................................................",
"................................................................",
"............................    ................................",
"............................    ................................",
"............................    ................................",
"............................    ................................",
"............................    ................................",
"............................    ................................",
"............................    ................................",
"............................    ................................",
"............................    ................................",
"............................    ................................",
"............................    ................................",
"............................    ................................",
"............................                                    ",
"............................                                    ",
"............................                                    ",
"............................                                    ",
"............................    ............................    ",
"............................    ............................    ",
"............................    ............................    ",
"............................    ............................    ",
"............................    ............................    ",
"............................    ............................    ",
"............................    ............................    ",
"............................    ............................    ",
"............................    ................................",
"............................    ................................",
"............................    ................................",
"............................    ................................",
"................................................................",
"................................................................",
"................................................................",
"................................................................",
"................................................................",
"................................................................",
"................................................................",
"................................................................",
"................................................................",
"................................................................",
"................................................................",
"................................................................",
"................................................................",
"................................................................",
"................................................................",
"................................................................",
"................................................................",
"................................................................",
"................................................................",
"................................................................",
"................................................................",
"................................................................",
"................................................................",
"................................................................"
};
