/* XPM */
static char *_6444e4ca4004f42c3b23862670846c8FjZpS9f77z9mIkgh[] = {
/* columns rows colors chars-per-pixel */
"64 64 4 1 ",
"  c #25131A",
". c #4C2F49",
"X c #6E4A48",
"o c #78514F",
/* pixels */
"                                        ........................",
"                                        ........................",
"                                        ........................",
"                                        ........................",
"                                    ....ooooXXXXoooooooooooo....",
"                                    ....ooooXXXXoooooooooooo....",
"                                    ....ooooXXXXoooooooooooo....",
"                                    ....ooooXXXXoooooooooooo....",
"                                    ....XXXXXXXXXXXXXXXXoooo....",
"                                    ....XXXXXXXXXXXXXXXXoooo....",
"                                    ....XXXXXXXXXXXXXXXXoooo....",
"                                    ....XXXXXXXXXXXXXXXXoooo....",
"                                    ....XXXXXXXXXXXXXXXXoooo....",
"                                    ....XXXXXXXXXXXXXXXXoooo....",
"                                    ....XXXXXXXXXXXXXXXXoooo....",
"                                    ....XXXXXXXXXXXXXXXXoooo....",
"                                    ....XXXXXXXXXXXXXXXXoooo....",
"                                    ....XXXXXXXXXXXXXXXXoooo....",
"                                    ....XXXXXXXXXXXXXXXXoooo....",
"                                    ....XXXXXXXXXXXXXXXXoooo....",
"                                    ....XXXXXXXXXXXXXXXXoooo....",
"                                    ....XXXXXXXXXXXXXXXXoooo....",
"                                    ....XXXXXXXXXXXXXXXXoooo....",
"                                    ....XXXXXXXXXXXXXXXXoooo....",
"                                    ....XXXXXXXXXXXXXXXXoooo....",
"                                    ....XXXXXXXXXXXXXXXXoooo....",
"                                    ....XXXXXXXXXXXXXXXXoooo....",
"                                    ....XXXXXXXXXXXXXXXXoooo....",
"                                    ............................",
"                                    ............................",
"                                    ............................",
"                                    ............................",
"                                    ............................",
"                                    ............................",
"                                    ............................",
"                                    ............................",
"                                    ....ooooXXXXoooooooooooo....",
"                                    ....ooooXXXXoooooooooooo....",
"                                    ....ooooXXXXoooooooooooo....",
"                                    ....ooooXXXXoooooooooooo....",
"                                    ....XXXXXXXXXXXXXXXXoooo....",
"                                    ....XXXXXXXXXXXXXXXXoooo....",
"                                    ....XXXXXXXXXXXXXXXXoooo....",
"                                    ....XXXXXXXXXXXXXXXXoooo....",
"                                    ....XXXXXXXXXXXXXXXXoooo....",
"                                    ....XXXXXXXXXXXXXXXXoooo....",
"                                    ....XXXXXXXXXXXXXXXXoooo....",
"                                    ....XXXXXXXXXXXXXXXXoooo....",
"                                    ....XXXXXXXXXXXXXXXXoooo....",
"                                    ....XXXXXXXXXXXXXXXXoooo....",
"                                    ....XXXXXXXXXXXXXXXXoooo....",
"                                    ....XXXXXXXXXXXXXXXXoooo....",
"                                    ....XXXXXXXXXXXXXXXXoooo....",
"                                    ....XXXXXXXXXXXXXXXXoooo....",
"                                    ....XXXXXXXXXXXXXXXXoooo....",
"                                    ....XXXXXXXXXXXXXXXXoooo....",
"                                    ....ooooXXXXoooooooooooo....",
"                                    ....ooooXXXXoooooooooooo....",
"                                    ....ooooXXXXoooooooooooo....",
"                                    ....ooooXXXXoooooooooooo....",
"                                    ............................",
"                                    ............................",
"                                    ............................",
"                                    ............................"
};
