/* XPM */
static char * left_wall_xpm[] = {
"64 64 73 1",
" 	c #D2CD87",
".	c #C6C67E",
"+	c #96AD58",
"@	c #83A448",
"#	c #C7C67E",
"$	c #97AD58",
"%	c #CCC685",
"&	c #CDC885",
"*	c #D1CC87",
"=	c #D2CC87",
"-	c #CFC886",
";	c #BFC07B",
">	c #93AB57",
",	c #B7AE7D",
"'	c #BDB580",
")	c #CEC885",
"!	c #D1C887",
"~	c #C4B783",
"{	c #A8AB72",
"]	c #8AA653",
"^	c #B0A67B",
"/	c #B6AD7D",
"(	c #CAC384",
"_	c #D1CB87",
":	c #CDC385",
"<	c #BCAD80",
"[	c #A0A570",
"}	c #87A452",
"|	c #B1A77B",
"1	c #B4AA7C",
"2	c #BBB27F",
"3	c #C4BC82",
"4	c #CFCA86",
"5	c #BCB27F",
"6	c #B7AB7E",
"7	c #A7A672",
"8	c #8CA554",
"9	c #A79E78",
"0	c #A59B77",
"a	c #9F9575",
"b	c #A79F78",
"c	c #BEB87F",
"d	c #C6C182",
"e	c #C6C082",
"f	c #A69B78",
"g	c #A09F6F",
"h	c #8BA354",
"i	c #82A448",
"j	c #89816D",
"k	c #877F6C",
"l	c #837B6B",
"m	c #857E6C",
"n	c #8F886E",
"o	c #928C70",
"p	c #928C6F",
"q	c #877F6D",
"r	c #888966",
"s	c #859E51",
"t	c #90886F",
"u	c #877D6D",
"v	c #7F8363",
"w	c #819D4F",
"x	c #C2B881",
"y	c #AD9F7A",
"z	c #92966B",
"A	c #84A151",
"B	c #D2CA87",
"C	c #CBBD85",
"D	c #AEB175",
"E	c #8CA854",
"F	c #D2CB87",
"G	c #C3C37D",
"H	c #94AC57",
"                               .+@@@@@@@@@@@@@@@@@@@@@@@@@@@@@@@",
"                               .+@@@@@@@@@@@@@@@@@@@@@@@@@@@@@@@",
"                               .+@@@@@@@@@@@@@@@@@@@@@@@@@@@@@@@",
"                               .+@@@@@@@@@@@@@@@@@@@@@@@@@@@@@@@",
"                               .+@@@@@@@@@@@@@@@@@@@@@@@@@@@@@@@",
"                               .+@@@@@@@@@@@@@@@@@@@@@@@@@@@@@@@",
"                               .+@@@@@@@@@@@@@@@@@@@@@@@@@@@@@@@",
"                               .+@@@@@@@@@@@@@@@@@@@@@@@@@@@@@@@",
"                               .+@@@@@@@@@@@@@@@@@@@@@@@@@@@@@@@",
"                               .+@@@@@@@@@@@@@@@@@@@@@@@@@@@@@@@",
"                               .+@@@@@@@@@@@@@@@@@@@@@@@@@@@@@@@",
"                               .+@@@@@@@@@@@@@@@@@@@@@@@@@@@@@@@",
"                               .+@@@@@@@@@@@@@@@@@@@@@@@@@@@@@@@",
"                               .+@@@@@@@@@@@@@@@@@@@@@@@@@@@@@@@",
"                               .+@@@@@@@@@@@@@@@@@@@@@@@@@@@@@@@",
"                               .+@@@@@@@@@@@@@@@@@@@@@@@@@@@@@@@",
"                               .+@@@@@@@@@@@@@@@@@@@@@@@@@@@@@@@",
"                               .+@@@@@@@@@@@@@@@@@@@@@@@@@@@@@@@",
"                               .+@@@@@@@@@@@@@@@@@@@@@@@@@@@@@@@",
"                               .+@@@@@@@@@@@@@@@@@@@@@@@@@@@@@@@",
"                               .+@@@@@@@@@@@@@@@@@@@@@@@@@@@@@@@",
"                               .+@@@@@@@@@@@@@@@@@@@@@@@@@@@@@@@",
"                               .+@@@@@@@@@@@@@@@@@@@@@@@@@@@@@@@",
"                               .+@@@@@@@@@@@@@@@@@@@@@@@@@@@@@@@",
"                               .+@@@@@@@@@@@@@@@@@@@@@@@@@@@@@@@",
"                               .+@@@@@@@@@@@@@@@@@@@@@@@@@@@@@@@",
"                               .+@@@@@@@@@@@@@@@@@@@@@@@@@@@@@@@",
"                               .+@@@@@@@@@@@@@@@@@@@@@@@@@@@@@@@",
"                               .+@@@@@@@@@@@@@@@@@@@@@@@@@@@@@@@",
"                               .+@@@@@@@@@@@@@@@@@@@@@@@@@@@@@@@",
"                               #$@@@@@@@@@@@@@@@@@@@@@@@@@@@@@@@",
"%&*                          =-;>@@@@@@@@@@@@@@@@@@@@@@@@@@@@@@@",
",')                          !~{]@@@@@@@@@@@@@@@@@@@@@@@@@@@@@@@",
"^/(_=                      =_:<[}@@@@@@@@@@@@@@@@@@@@@@@@@@@@@@@",
"|1234                      435678@@@@@@@@@@@@@@@@@@@@@@@@@@@@@@@",
"90abcdeeeeeeeeeeeeeeeeeeeedcbafghi@@@@@@@@@@@@@@@@@@@@@@@@@@@@@@",
"jklmnopppppppppppppppppppponmlqrs@@@@@@@@@@@@@@@@@@@@@@@@@@@@@@@",
"jklmnoppppppppppppppppppppppotuvw@@@@@@@@@@@@@@@@@@@@@@@@@@@@@@@",
"90abcdeeeeeeeeeeeeeeeeeeeeeedxyzA@@@@@@@@@@@@@@@@@@@@@@@@@@@@@@@",
"|1234                        BCDE@@@@@@@@@@@@@@@@@@@@@@@@@@@@@@@",
"^/(_=                         FGH@@@@@@@@@@@@@@@@@@@@@@@@@@@@@@@",
",')                            #+@@@@@@@@@@@@@@@@@@@@@@@@@@@@@@@",
"%&*                            .+@@@@@@@@@@@@@@@@@@@@@@@@@@@@@@@",
"                               .+@@@@@@@@@@@@@@@@@@@@@@@@@@@@@@@",
"                               .+@@@@@@@@@@@@@@@@@@@@@@@@@@@@@@@",
"                               .+@@@@@@@@@@@@@@@@@@@@@@@@@@@@@@@",
"                               .+@@@@@@@@@@@@@@@@@@@@@@@@@@@@@@@",
"                               .+@@@@@@@@@@@@@@@@@@@@@@@@@@@@@@@",
"                               .+@@@@@@@@@@@@@@@@@@@@@@@@@@@@@@@",
"                               .+@@@@@@@@@@@@@@@@@@@@@@@@@@@@@@@",
"                               .+@@@@@@@@@@@@@@@@@@@@@@@@@@@@@@@",
"                               .+@@@@@@@@@@@@@@@@@@@@@@@@@@@@@@@",
"                               .+@@@@@@@@@@@@@@@@@@@@@@@@@@@@@@@",
"                               .+@@@@@@@@@@@@@@@@@@@@@@@@@@@@@@@",
"                               .+@@@@@@@@@@@@@@@@@@@@@@@@@@@@@@@",
"                               .+@@@@@@@@@@@@@@@@@@@@@@@@@@@@@@@",
"                               .+@@@@@@@@@@@@@@@@@@@@@@@@@@@@@@@",
"                               .+@@@@@@@@@@@@@@@@@@@@@@@@@@@@@@@",
"                               .+@@@@@@@@@@@@@@@@@@@@@@@@@@@@@@@",
"                               .+@@@@@@@@@@@@@@@@@@@@@@@@@@@@@@@",
"                               .+@@@@@@@@@@@@@@@@@@@@@@@@@@@@@@@",
"                               .+@@@@@@@@@@@@@@@@@@@@@@@@@@@@@@@",
"                               .+@@@@@@@@@@@@@@@@@@@@@@@@@@@@@@@",
"                               .+@@@@@@@@@@@@@@@@@@@@@@@@@@@@@@@"};
