/* XPM */
static char *_6ca57646dc543458e5e35d8bfccc7c0f3Onarrw1m8Lj3xm[] = {
/* columns rows colors chars-per-pixel */
"64 64 6 1 ",
"  c None",
". c #25131A",
"X c #593756",
"o c #577EA1",
"O c #62ABD4",
"+ c #CDD5D0",
/* pixels */
"                                                                ",
"                                                                ",
"                                                                ",
"                                                                ",
"                    ....                                        ",
"                    ....                                        ",
"                    ....                                        ",
"                    ....                                        ",
"                ....OOOO............                            ",
"                ....OOOO............                            ",
"                ....OOOO............                            ",
"                ....OOOO............                            ",
"                ....OOOO++++OOOOOOOO........                    ",
"                ....OOOO++++OOOOOOOO........                    ",
"                ....OOOO++++OOOOOOOO........                    ",
"                ....OOOO++++OOOOOOOO........                    ",
"        ....        ....OOOO++++++++OOOOOOOO....                ",
"        ....        ....OOOO++++++++OOOOOOOO....                ",
"        ....        ....OOOO++++++++OOOOOOOO....                ",
"        ....        ....OOOO++++++++OOOOOOOO....                ",
"    ....OOOO........OOOO++++++++++++++++OOOO....                ",
"    ....OOOO........OOOO++++++++++++++++OOOO....                ",
"    ....OOOO........OOOO++++++++++++++++OOOO....                ",
"    ....OOOO........OOOO++++++++++++++++OOOO....                ",
"    ....++++OOOOOOOOOOOO....................OOOO....            ",
"    ....++++OOOOOOOOOOOO....................OOOO....            ",
"    ....++++OOOOOOOOOOOO....................OOOO....            ",
"    ....++++OOOOOOOOOOOO....................OOOO....            ",
"    ........++++++++....ooooOOOOOOOOOOOOoooo........            ",
"    ........++++++++....ooooOOOOOOOOOOOOoooo........            ",
"    ........++++++++....ooooOOOOOOOOOOOOoooo........            ",
"    ........++++++++....ooooOOOOOOOOOOOOoooo........            ",
"        ....++++....ooooOOOOOOOOOOOOOOOOOOOOoooo....            ",
"        ....++++....ooooOOOOOOOOOOOOOOOOOOOOoooo....            ",
"        ....++++....ooooOOOOOOOOOOOOOOOOOOOOoooo....            ",
"        ....++++....ooooOOOOOOOOOOOOOOOOOOOOoooo....            ",
"            ........ooooXXXXXXXX....OOOOXXXX........            ",
"            ........ooooXXXXXXXX....OOOOXXXX........            ",
"            ........ooooXXXXXXXX....OOOOXXXX........            ",
"            ........ooooXXXXXXXX....OOOOXXXX........            ",
"                ....oooo............OOOO............            ",
"                ....oooo............OOOO............            ",
"                ....oooo............OOOO............            ",
"                ....oooo............OOOO............            ",
"                    ....ooooOOOOOOOOOOOOOOOOoooo....            ",
"                    ....ooooOOOOOOOOOOOOOOOOoooo....            ",
"                    ....ooooOOOOOOOOOOOOOOOOoooo....            ",
"                    ....ooooOOOOOOOOOOOOOOOOoooo....            ",
"                        ....ooooOOOO....oooo....                ",
"                        ....ooooOOOO....oooo....                ",
"                        ....ooooOOOO....oooo....                ",
"                        ....ooooOOOO....oooo....                ",
"                            ........    ....                    ",
"                            ........    ....                    ",
"                            ........    ....                    ",
"                            ........    ....                    ",
"                                                                ",
"                                                                ",
"                                                                ",
"                                                                ",
"                                                                ",
"                                                                ",
"                                                                ",
"                                                                "
};
