/* XPM */
static char *d7134cd18e4343bab61f1b3f5cae4feea5dpuc5pemCYvseV[] = {
/* columns rows colors chars-per-pixel */
"64 64 7 1 ",
"  c #25131A",
". c #362030",
"X c #3D253B",
"o c #593756",
"O c #577EA1",
"+ c #62ABD4",
"@ c #CDD5D0",
/* pixels */
"XXXXXXXXXXXXXXXXXXXXXXXXXXXXXXXXXXXXXXXXXXXXXXXXXXXXXXXXXXXXXXXX",
"XXXXXXXXXXXXXXXXXXXXXXXXXXXXXXXXXXXXXXXXXXXXXXXXXXXXXXXXXXXXXXXX",
"XXXXXXXXXXXXXXXXXXXXXXXXXXXXXXXXXXXXXXXXXXXXXXXXXXXXXXXXXXXXXXXX",
"XXXXXXXXXXXXXXXXXXXXXXXXXXXXXXXXXXXXXXXXXXXXXXXXXXXXXXXXXXXXXXXX",
"XXXXXXXXXXXXXXXXXXXX    XXXXXXXXXXXXXXXXXXXXXXXXXXXXXXXXXXXXXXXX",
"XXXXXXXXXXXXXXXXXXXX    XXXXXXXXXXXXXXXXXXXXXXXXXXXXXXXXXXXXXXXX",
"XXXXXXXXXXXXXXXXXXXX    XXXXXXXXXXXXXXXXXXXXXXXXXXXXXXXXXXXXXXXX",
"XXXXXXXXXXXXXXXXXXXX    XXXXXXXXXXXXXXXXXXXXXXXXXXXXXXXXXXXXXXXX",
"XXXXXXXXXXXXXXXX    ++++            XXXXXXXXXXXXXXXXXXXXXXXXXXXX",
"XXXXXXXXXXXXXXXX    ++++            XXXXXXXXXXXXXXXXXXXXXXXXXXXX",
"XXXXXXXXXXXXXXXX    ++++            XXXXXXXXXXXXXXXXXXXXXXXXXXXX",
"XXXXXXXXXXXXXXXX    ++++            XXXXXXXXXXXXXXXXXXXXXXXXXXXX",
"XXXXXXXXXXXXXXXX    ++++@@@@++++++++        XXXXXXXXXXXXXXXXXXXX",
"XXXXXXXXXXXXXXXX    ++++@@@@++++++++        XXXXXXXXXXXXXXXXXXXX",
"XXXXXXXXXXXXXXXX    ++++@@@@++++++++        XXXXXXXXXXXXXXXXXXXX",
"XXXXXXXXXXXXXXXX    ++++@@@@++++++++        XXXXXXXXXXXXXXXXXXXX",
"XXXXXXXX    XXXXXXXX    ++++@@@@@@@@++++++++    XXXXXXXXXXXXXXXX",
"XXXXXXXX    XXXXXXXX    ++++@@@@@@@@++++++++    XXXXXXXXXXXXXXXX",
"XXXXXXXX    XXXXXXXX    ++++@@@@@@@@++++++++    XXXXXXXXXXXXXXXX",
"XXXXXXXX    XXXXXXXX    ++++@@@@@@@@++++++++    XXXXXXXXXXXXXXXX",
"XXXX    ++++        ++++@@@@@@@@@@@@@@@@++++    XXXXXXXXXXXXXXXX",
"XXXX    ++++        ++++@@@@@@@@@@@@@@@@++++    XXXXXXXXXXXXXXXX",
"XXXX    ++++        ++++@@@@@@@@@@@@@@@@++++    XXXXXXXXXXXXXXXX",
"XXXX    ++++        ++++@@@@@@@@@@@@@@@@++++    XXXXXXXXXXXXXXXX",
"XXXX    @@@@++++++++++++                    ++++    ............",
"XXXX    @@@@++++++++++++                    ++++    ............",
"XXXX    @@@@++++++++++++                    ++++    ............",
"XXXX    @@@@++++++++++++                    ++++    ............",
"XXXX        @@@@@@@@    OOOO++++++++++++OOOO        XXXXXXXX....",
"XXXX        @@@@@@@@    OOOO++++++++++++OOOO        XXXXXXXX....",
"XXXX        @@@@@@@@    OOOO++++++++++++OOOO        XXXXXXXX....",
"XXXX        @@@@@@@@    OOOO++++++++++++OOOO        XXXXXXXX....",
"XXXXXXXX    @@@@    OOOO++++++++++++++++++++OOOO    XXXXXXXX....",
"XXXXXXXX    @@@@    OOOO++++++++++++++++++++OOOO    XXXXXXXX....",
"XXXXXXXX    @@@@    OOOO++++++++++++++++++++OOOO    XXXXXXXX....",
"XXXXXXXX    @@@@    OOOO++++++++++++++++++++OOOO    XXXXXXXX....",
"XXXXXXXXXXXX        OOOOoooooooo    ++++oooo        XXXXXXXXXXXX",
"XXXXXXXXXXXX        OOOOoooooooo    ++++oooo        XXXXXXXXXXXX",
"XXXXXXXXXXXX        OOOOoooooooo    ++++oooo        XXXXXXXXXXXX",
"XXXXXXXXXXXX        OOOOoooooooo    ++++oooo        XXXXXXXXXXXX",
"XXXXXXXXXXXXXXXX    OOOO            ++++            XXXXXXXXXXXX",
"XXXXXXXXXXXXXXXX    OOOO            ++++            XXXXXXXXXXXX",
"XXXXXXXXXXXXXXXX    OOOO            ++++            XXXXXXXXXXXX",
"XXXXXXXXXXXXXXXX    OOOO            ++++            XXXXXXXXXXXX",
"XXXXXXXXXXXXXXXXXXXX    OOOO++++++++++++++++OOOO    XXXXXXXXXXXX",
"XXXXXXXXXXXXXXXXXXXX    OOOO++++++++++++++++OOOO    XXXXXXXXXXXX",
"XXXXXXXXXXXXXXXXXXXX    OOOO++++++++++++++++OOOO    XXXXXXXXXXXX",
"XXXXXXXXXXXXXXXXXXXX    OOOO++++++++++++++++OOOO    XXXXXXXXXXXX",
"XXXXXXXXXXXXXXXXXXXXXXXX    OOOO++++    OOOO    XXXXXXXXXXXXXXXX",
"XXXXXXXXXXXXXXXXXXXXXXXX    OOOO++++    OOOO    XXXXXXXXXXXXXXXX",
"XXXXXXXXXXXXXXXXXXXXXXXX    OOOO++++    OOOO    XXXXXXXXXXXXXXXX",
"XXXXXXXXXXXXXXXXXXXXXXXX    OOOO++++    OOOO    XXXXXXXXXXXXXXXX",
"XXXXXXXXXXXXXXXXXXXXXXXXXXXX        XXXX    XXXXXXXXXXXXXXXXXXXX",
"XXXXXXXXXXXXXXXXXXXXXXXXXXXX        XXXX    XXXXXXXXXXXXXXXXXXXX",
"XXXXXXXXXXXXXXXXXXXXXXXXXXXX        XXXX    XXXXXXXXXXXXXXXXXXXX",
"XXXXXXXXXXXXXXXXXXXXXXXXXXXX        XXXX    XXXXXXXXXXXXXXXXXXXX",
"XXXXXXXXXXXXXXXXXXXXXXXXXXXXXXXXXXXXXXXXXXXXXXXXXXXXXXXXXXXXXXXX",
"XXXXXXXXXXXXXXXXXXXXXXXXXXXXXXXXXXXXXXXXXXXXXXXXXXXXXXXXXXXXXXXX",
"XXXXXXXXXXXXXXXXXXXXXXXXXXXXXXXXXXXXXXXXXXXXXXXXXXXXXXXXXXXXXXXX",
"XXXXXXXXXXXXXXXXXXXXXXXXXXXXXXXXXXXXXXXXXXXXXXXXXXXXXXXXXXXXXXXX",
"XXXXXXXXXXXXXXXXXXXXXXXXXXXXXXXXXXXXXXXXXXXXXXXXXXXXXXXXXXXXXXXX",
"XXXXXXXXXXXXXXXXXXXXXXXXXXXXXXXXXXXXXXXXXXXXXXXXXXXXXXXXXXXXXXXX",
"XXXXXXXXXXXXXXXXXXXXXXXXXXXXXXXXXXXXXXXXXXXXXXXXXXXXXXXXXXXXXXXX",
"XXXXXXXXXXXXXXXXXXXXXXXXXXXXXXXXXXXXXXXXXXXXXXXXXXXXXXXXXXXXXXXX"
};
