/* XPM */
static char *_4f6906ba40a48e4c781dde4c9de69c66Mw6FKYdpI5WwcTe[] = {
/* columns rows colors chars-per-pixel */
"48 48 15 1 ",
"  c #181425",
". c #391F21",
"X c #686F16",
"o c #72751B",
"O c #787B21",
"+ c #BF6F4A",
"@ c #7F8124",
"# c #E69C69",
"$ c #124E89",
"% c #657392",
"& c #0095E9",
"* c #2CE8F5",
"= c #92A1B9",
"- c #C7CFDD",
"; c white",
/* pixels */
"oooooooooooooooooooooooooooooooooooooooooooooooo",
"oooooooooooooooooooooooooooooooooooooooooooooooo",
"oooooooooooooooooooooooooooooooooooooooooooooooo",
"oooooooooooooooooooooooooooooooooooooooooooooooo",
"oooooooooooooooooooooooooooooooooooooooooooooooo",
"oooooooooooooooooooooooooooooooooooooooooooooooo",
"ooooOOOooooooooooo............oooooooooooooooooo",
"ooooXX@@@ooooooooo............oooooooooooooooooo",
"ooooXX@@@ooooooooo............oooooooooooooooooo",
"oooooo@OOOooooo...#########+++   ooooooooooooooo",
"ooooooXOOOoo@OO...#########+++   ooooooooooooooo",
"ooooooXOOOoo@OO...#########+++   ooooooooooooooo",
"ooooooXOOOOO$$$===++++++++++++===   oooooooooooo",
"oooooooXXXOO$$$===++++++++++++===   o@@@OOoooooo",
"oooooooXXXOO$$$===++++++++++++===   o@@@OOoooooo",
"ooooooooooXX$$$;;;;;;------------   OOO@oooooooo",
"oooooooooooo$$$;;;;;;------------   OOOXoooooooo",
"oooooooooooo$$$;;;;;;------------   OOOXoooooooo",
"ooooooooooooooo$$$======%%%%%%   oOOOXXO@@oooooo",
"ooooooooooooooo$$$======%%%%%%   oOOXOOOXXoooooo",
"ooooooooooooooo$$$======%%%%%%   oOOXOOOXXoooooo",
"oooooooooooo$$$---&&&&&&&&&$$$---   XOOXoooooooo",
"oooooooooooo$$$---&&&&&&&&&$$$---   oooooooooooo",
"oooooooooooo$$$---&&&&&&&&&$$$---   oooooooooooo",
"ooooooooo$$$---&&&;;;&&&$$$$$$$$$---   ooooooooo",
"ooooooooo$$$---&&&;;;&&&$$$$$$$$$---   ooooooooo",
"ooooooooo$$$---&&&;;;&&&$$$$$$$$$---   ooooooooo",
"ooooooooo$$$---;;;;;;$$$$$$$$$***---   ooooooooo",
"ooooooooo$$$---;;;;;;$$$$$$$$$***---   ooooooooo",
"ooooooooo$$$---;;;;;;$$$$$$$$$***---   ooooooooo",
"oooooo$$$---***;;;***************&&&===   oooooo",
"oooooo$$$---***;;;***************&&&===   oooooo",
"oooooo$$$---***;;;***************&&&===   oooooo",
"oooooo$$$---&&&************&&&&&&&&&===   oooooo",
"oooo@@$$$---&&&************&&&&&&&&&===   oooooo",
"oooo@@$$$---&&&************&&&&&&&&&===   oooooo",
"oooooo   ===&&&&&&***&&&&&&&&&&&&&&&%%%   o@@@oo",
"oooooo   ===&&&&&&***&&&&&&&&&&&&&&&%%%   O@@ooo",
"oooooo   ===&&&&&&***&&&&&&&&&&&&&&&%%%   O@@ooo",
"ooooooXOO   ===------===---===%%%%%%   XOOOXXooo",
"oooooooXX   ===------===---===%%%%%%   OXXXooooo",
"oooooooXX   ===------===---===%%%%%%   OXXXooooo",
"oooooooooooo                        XOOOoooooooo",
"oooooooooooo                        oooooooooooo",
"oooooooooooo                        oooooooooooo",
"oooooooooooooooooooooooooooooooooooooooooooooooo",
"oooooooooooooooooooooooooooooooooooooooooooooooo",
"oooooooooooooooooooooooooooooooooooooooooooooooo"
};
