/* XPM */
static char *ff993daa917348afeafb7274cdde7250CN1DSePWUXM3IKp5[] = {
/* columns rows colors chars-per-pixel */
"48 48 34 1 ",
"  c #57331E",
". c #57341F",
"X c #58341F",
"o c #5A3723",
"O c #5A3724",
"+ c #5B3823",
"@ c #5B3925",
"# c #5C3925",
"$ c #5E3C27",
"% c #5E3C29",
"& c #603E2A",
"* c #72751B",
"= c #615A4F",
"- c #645E52",
"; c #6D695F",
": c #747065",
"> c #79776C",
", c #7B766E",
"< c #7C796F",
"1 c #7B7770",
"2 c #7F7C72",
"3 c #827F76",
"4 c #878579",
"5 c #8B897E",
"6 c #8B8980",
"7 c #8D8B81",
"8 c #8E8C81",
"9 c #918D84",
"0 c #99978E",
"q c #9A9890",
"w c #9C9A92",
"e c #9D9B94",
"r c #9F9D96",
"t c #A2A09A",
/* pixels */
"****@@###%%%%%%%&&&&&&&&&&&&&&&&&%%%%##Oooo*****",
"***+tt888844444444444444444444888888888888too***",
"***+tt888844444444444444444444888888888888too***",
"*oo2tt888444444444444444444444888888888888t;;o**",
"o222ee888444444444444444444444444488888888r;;;oo",
"o222ee888444444444444444444444444488888888r;;;oo",
"@222ww444444444444444444444444444488844444e;;;oo",
"#22:qq444444444444444444444444444444444444q;;-oo",
"#22:qq444444444444444444444444444444444444q;;-oo",
"#:::00444444444444444444444444444444444444q;;-@@",
"#:::00444444444444444444444444444444444444q---@@",
"#:::00444444444444444444444444444444444444q---@@",
"#:::004444444444444444444444444444444444440---##",
"#:::004444444444444444444444444444444444440---##",
"#:::004444444444444444444444444444444444440---##",
"#:::004444444444444444444444444444444444440---##",
"$:::004444444444444444444444444444444444440---##",
"$:::004444444444444444444444444444444444440---##",
"$:::004444444444444444444444444444444444440---##",
"$:::004444444444444444444444444444444444440---##",
"$:::004444444444444444444444444444444444440---##",
"$:::004444444444444444444444444444444444440---##",
"$:::004444444444444444444444444444444444440---##",
"$:::004444444444444444444444444444444444440---##",
"%:::008444444444444444444444444444444444440---##",
"%:::008888444444444444444444444444444444440---##",
"%:::008888444444444444444444444444444444440---##",
"%:::008888444444444444444444444888444444440---##",
"%:::ww8888444444444444444444444888444444440---##",
"%:::ww8888444444444444444444444888444444440---##",
"#:::tt8444444444444444444444444444444444440---##",
"#:::tt8444444444444444444444444444444444440---@@",
"#:::tt8444444444444444444444444444444444440---@@",
"#:::tt8444444444444444444444444444444444440---oo",
"#:::tt888844444444444444444444444444444488t---oo",
"#:::tt888844444444444444444444444444444488t---oo",
"@:::tt888888844444444444444444444444444888t---oo",
"o:::tt888888844444888444444444444444888887t===oo",
"o:::tt888888844444888444444444444444888888t===oo",
"o:::88t888888888888884444444444444448888tt<===oo",
"o::6889tttttttttwwwwwwwwwwwttttttttttttt,,,,,=XX",
"o::6889tttttttttwwwwwwwwwwwttttttttttttt,,,,,=XX",
"X55788t333333,,,,,,,,,11133333311,,,,,,,tt,,,,..",
"X557tt333333,,,,,,,,,,,,,,,3333,,,,,,,,,,,t,,,  ",
"X557tt333333,,,,,,,,,,,,,,,3333,,,,,,,,,,,t,,,  ",
"*  t333,,,,,,,,,,,,,,,,,,,,,,,,,,,,,,,,,,,,tt **",
"***                                          ***",
"***                                          ***"
};
